<svg width="48" height="48" viewBox="0 0 48 48" fill="none" xmlns="http://www.w3.org/2000/svg">
<g clip-path="url(#clip0_41_7767)">
<path d="M4.01842 44.169L7.34728 47.4975C7.7285 47.8787 8.34593 47.8787 8.72716 47.4975L12.056 44.169L15.3845 47.4975C15.7657 47.8787 16.3835 47.8787 16.7644 47.4975L20.0932 44.169L23.4221 47.4975C23.8029 47.8787 24.4207 47.8787 24.8016 47.4975L28.1304 44.169L31.1498 47.188C31.5182 47.5568 32.1489 47.2957 32.1489 46.7742V1.16308C32.1489 0.624389 31.7123 0.1875 31.1733 0.1875H0.975584C0.436889 0.1875 0 0.624389 0 1.16308V46.7742C0 47.2957 0.630614 47.5572 0.999388 47.188L4.01842 44.169Z" fill="#DDF5FF"/>
<path d="M29.9794 0.1875V42.9934L28.82 41.8344C28.4392 41.4532 27.8214 41.4532 27.4401 41.8344L24.1116 45.1632L20.7828 41.8344C20.4016 41.4532 19.7841 41.4532 19.4029 41.8344L16.0744 45.1632L12.7456 41.8344C12.3644 41.4532 11.7469 41.4532 11.3657 41.8344L8.03722 45.1632L4.70836 41.8344C4.32751 41.4532 3.70971 41.4532 3.32885 41.8344L0 45.1632V46.7742C0 47.2957 0.630614 47.5572 0.999388 47.188L4.01842 44.169L7.34728 47.4975C7.7285 47.8787 8.34593 47.8787 8.72716 47.4975L12.056 44.169L15.3845 47.4975C15.7657 47.8787 16.3835 47.8787 16.7644 47.4975L20.0932 44.169L23.4221 47.4975C23.8029 47.8787 24.4207 47.8787 24.8016 47.4975L28.1304 44.169L31.1498 47.188C31.5182 47.5568 32.1489 47.2957 32.1489 46.7742V1.16308C32.1489 0.624389 31.7123 0.1875 31.1733 0.1875H29.9794Z" fill="#C1E9F4"/>
<path d="M9.09899 3.65137H7.05005C6.37768 3.65137 5.83057 4.19812 5.83057 4.87085V10.334C5.83057 11.0067 6.37768 11.5535 7.05005 11.5535H9.09899C10.2555 11.5535 11.1966 10.6127 11.1966 9.45617V8.96837C11.1966 8.44689 11.0055 7.96972 10.6894 7.60241C11.0055 7.2351 11.1966 6.75756 11.1966 6.23645V5.74865C11.1966 4.59216 10.2555 3.65137 9.09899 3.65137ZM9.09899 5.11474C9.44872 5.11474 9.7329 5.39929 9.7329 5.74865V6.23645C9.7329 6.58618 9.44836 6.87072 9.09899 6.87072H7.29394V5.11474H9.09899ZM9.7329 9.45617C9.7329 9.8059 9.44836 10.0901 9.09899 10.0901H7.29394V8.3341H9.09899C9.44872 8.3341 9.7329 8.61864 9.7329 8.96837V9.45617Z" fill="#495959"/>
<path d="M19.4402 10.0901H16.2695V4.38306C16.2695 3.97876 15.9418 3.65137 15.5378 3.65137C15.1335 3.65137 14.8062 3.97876 14.8062 4.38306V10.8218C14.8062 11.2261 15.1335 11.5538 15.5378 11.5538H19.4402C19.8445 11.5538 20.1719 11.2261 20.1719 10.8218C20.1719 10.4178 19.8445 10.0901 19.4402 10.0901Z" fill="#495959"/>
<path d="M25.587 10.0901H22.416V4.38306C22.416 3.97876 22.0886 3.65137 21.6843 3.65137C21.2804 3.65137 20.9526 3.97876 20.9526 4.38306V10.8218C20.9526 11.2261 21.2804 11.5538 21.6843 11.5538H25.587C25.991 11.5538 26.3187 11.2261 26.3187 10.8218C26.3187 10.4178 25.991 10.0901 25.587 10.0901Z" fill="#495959"/>
<path d="M13.0012 3.65137C12.5969 3.65137 12.2695 3.97876 12.2695 4.38306V10.8218C12.2695 11.2261 12.5969 11.5538 13.0012 11.5538C13.4055 11.5538 13.7329 11.2261 13.7329 10.8218V4.38306C13.7329 3.97876 13.4055 3.65137 13.0012 3.65137Z" fill="#495959"/>
<path d="M18.5135 18.4805H6.22095C5.81665 18.4805 5.48926 18.1531 5.48926 17.7488C5.48926 17.3448 5.81665 17.0171 6.22095 17.0171H18.5135C18.9178 17.0171 19.2452 17.3448 19.2452 17.7488C19.2452 18.1531 18.9178 18.4805 18.5135 18.4805Z" fill="#495959"/>
<path d="M25.9281 18.4805H21.4402C21.0363 18.4805 20.7085 18.1531 20.7085 17.7488C20.7085 17.3448 21.0363 17.0171 21.4402 17.0171H25.9281C26.3324 17.0171 26.6598 17.3448 26.6598 17.7488C26.6598 18.1531 26.3324 18.4805 25.9281 18.4805Z" fill="#495959"/>
<path d="M19.2452 24.334H6.22095C5.81665 24.334 5.48926 24.0062 5.48926 23.6023C5.48926 23.198 5.81665 22.8706 6.22095 22.8706H19.2452C19.6495 22.8706 19.9769 23.198 19.9769 23.6023C19.9769 24.0062 19.6495 24.334 19.2452 24.334Z" fill="#495959"/>
<path d="M19.2452 30.1875H6.22095C5.81665 30.1875 5.48926 29.8601 5.48926 29.4558C5.48926 29.0519 5.81665 28.7241 6.22095 28.7241H19.2452C19.6495 28.7241 19.9769 29.0515 19.9769 29.4558C19.9769 29.8601 19.6495 30.1875 19.2452 30.1875Z" fill="#495959"/>
<path d="M45.6201 40.9681H21.1111C19.7968 40.9681 18.7314 39.9028 18.7314 38.5885V23.8357C18.7314 22.5214 19.7968 21.4561 21.1111 21.4561H45.6201C46.9344 21.4561 47.9997 22.5214 47.9997 23.8357V38.5888C47.9997 39.9028 46.9344 40.9681 45.6201 40.9681Z" fill="#6DC54A"/>
<path d="M24.9779 33.0737H21.4084C21.0045 33.0737 20.6768 32.746 20.6768 32.342C20.6768 31.9377 21.0045 31.6104 21.4084 31.6104H24.9779C25.3818 31.6104 25.7096 31.9377 25.7096 32.342C25.7096 32.746 25.3818 33.0737 24.9779 33.0737Z" fill="#FFCD50"/>
<path d="M23.7881 37.1786H21.4084C21.0045 37.1786 20.6768 36.8508 20.6768 36.4465C20.6768 36.0426 21.0045 35.7148 21.4084 35.7148H23.7881C24.192 35.7148 24.5198 36.0426 24.5198 36.4465C24.5198 36.8508 24.192 37.1786 23.7881 37.1786Z" fill="#495959"/>
<path d="M28.25 37.1786H25.8704C25.4664 37.1786 25.1387 36.8508 25.1387 36.4465C25.1387 36.0426 25.4664 35.7148 25.8704 35.7148H28.25C28.6539 35.7148 28.9817 36.0426 28.9817 36.4465C28.9817 36.8508 28.6539 37.1786 28.25 37.1786Z" fill="#495959"/>
<path d="M32.7114 37.1786H30.3318C29.9279 37.1786 29.6001 36.8508 29.6001 36.4465C29.6001 36.0426 29.9279 35.7148 30.3318 35.7148H32.7114C33.1157 35.7148 33.4431 36.0426 33.4431 36.4465C33.4431 36.8508 33.1157 37.1786 32.7114 37.1786Z" fill="#495959"/>
<path d="M31.2241 33.0737H27.655C27.2507 33.0737 26.9233 32.746 26.9233 32.342C26.9233 31.9377 27.2507 31.6104 27.655 31.6104H31.2241C31.6284 31.6104 31.9558 31.9377 31.9558 32.342C31.9558 32.746 31.6284 33.0737 31.2241 33.0737Z" fill="#FFCD50"/>
<path d="M37.4706 33.0737H33.9011C33.4972 33.0737 33.1694 32.746 33.1694 32.342C33.1694 31.9377 33.4972 31.6104 33.9011 31.6104H37.4706C37.8745 31.6104 38.2023 31.9377 38.2023 32.342C38.2023 32.746 37.8745 33.0737 37.4706 33.0737Z" fill="#FFCD50"/>
<path d="M43.7167 33.0737H40.1472C39.7433 33.0737 39.4155 32.746 39.4155 32.342C39.4155 31.9377 39.7433 31.6104 40.1472 31.6104H43.7167C44.121 31.6104 44.4484 31.9377 44.4484 32.342C44.4484 32.746 44.121 33.0737 43.7167 33.0737Z" fill="#FFCD50"/>
<path d="M46.2551 21.542C46.3107 21.7441 46.3411 21.9569 46.3411 22.1766V38.3338C46.3411 38.8725 45.9042 39.3094 45.3655 39.3094H19.4525C19.2324 39.3094 19.02 39.279 18.8179 39.2234C19.0958 40.2293 20.0168 40.968 21.1111 40.968H45.6201C46.9344 40.968 47.9997 39.9027 47.9997 38.5887V23.8356C47.9997 22.741 47.2607 21.8199 46.2551 21.542Z" fill="#5DB33A"/>
<path d="M27.1191 29.5464H22.3602C21.7032 29.5464 21.1704 29.0135 21.1704 28.3566V25.0848C21.1704 24.4275 21.7032 23.895 22.3602 23.895H27.1191C27.7765 23.895 28.3089 24.4275 28.3089 25.0848V28.3566C28.3089 29.0135 27.7765 29.5464 27.1191 29.5464Z" fill="#FFCD50"/>
<path d="M27.1193 23.895H25.8511C26.5084 23.895 27.0409 24.4275 27.0409 25.0848V28.3566C27.0409 29.0135 26.5084 29.5464 25.8511 29.5464H27.1193C27.7766 29.5464 28.3091 29.0135 28.3091 28.3566V25.0848C28.3091 24.4275 27.7766 23.895 27.1193 23.895Z" fill="#FFBC27"/>
<path d="M45.3821 36.5658C45.3821 37.5516 44.5834 38.3507 43.5975 38.3507C42.6121 38.3507 41.813 37.5516 41.813 36.5658C41.813 35.5803 42.6121 34.7812 43.5975 34.7812C44.5834 34.7812 45.3821 35.5803 45.3821 36.5658Z" fill="#FF7C48"/>
<path d="M42.7053 36.5658C42.7053 37.5516 41.9066 38.3507 40.9208 38.3507C39.9353 38.3507 39.1362 37.5516 39.1362 36.5658C39.1362 35.5803 39.9353 34.7812 40.9208 34.7812C41.9066 34.7812 42.7053 35.5803 42.7053 36.5658Z" fill="#FFCD50"/>
</g>
<defs>
<clipPath id="clip0_41_7767">
<rect width="48" height="48" fill="white"/>
</clipPath>
</defs>
</svg>
