<svg width="48" height="48" viewBox="0 0 48 48" fill="none" xmlns="http://www.w3.org/2000/svg">
<g clip-path="url(#clip0_41_7709)">
<path d="M29.591 27.0403C36.7926 27.0403 42.6306 21.2022 42.6306 14.0006C42.6306 6.799 36.7926 0.960938 29.591 0.960938C22.3893 0.960938 16.5513 6.799 16.5513 14.0006C16.5513 21.2022 22.3893 27.0403 29.591 27.0403Z" fill="#638B3F"/>
<path d="M29.5908 24.6133C35.4521 24.6133 40.2036 19.8618 40.2036 14.0005C40.2036 8.13921 35.4521 3.3877 29.5908 3.3877C23.7295 3.3877 18.978 8.13921 18.978 14.0005C18.978 19.8618 23.7295 24.6133 29.5908 24.6133Z" fill="#88C057"/>
<path d="M29.637 21.4703C29.4364 21.4703 29.253 21.3983 29.1234 21.2667C28.9909 21.1352 28.9228 20.9576 28.9228 20.7551V19.9026C27.8293 19.8181 26.7945 19.5656 25.8402 19.1519C25.6588 19.076 25.5033 18.956 25.3813 18.7938C25.2489 18.6239 25.1826 18.4251 25.1826 18.2043C25.1826 17.9307 25.2767 17.6927 25.4629 17.4968C25.653 17.2991 25.9045 17.1954 26.1906 17.1954C26.3433 17.1954 26.494 17.2271 26.637 17.2885C27.3177 17.5919 28.0866 17.7771 28.9228 17.8395V14.9835C28.2805 14.8069 27.7276 14.6207 27.2802 14.4296C26.734 14.1963 26.2665 13.8555 25.8892 13.4168C25.4917 12.9522 25.2901 12.3474 25.2901 11.6187C25.2901 10.9938 25.4476 10.4139 25.7596 9.89554C26.0745 9.3733 26.5401 8.94706 27.142 8.62835C27.6469 8.36146 28.245 8.19058 28.9218 8.11858V7.26035C28.9218 7.06355 28.9871 6.88787 29.1138 6.75155C29.2463 6.60659 29.4277 6.52979 29.637 6.52979C29.8415 6.52979 30.021 6.60274 30.1573 6.74098C30.2937 6.87538 30.3666 7.05587 30.3666 7.26035V8.09362C31.2585 8.15218 32.0994 8.32595 32.8713 8.60915C33.3042 8.76275 33.5529 9.11699 33.5529 9.57971C33.5529 9.83699 33.4645 10.0683 33.2889 10.268C33.1045 10.4773 32.8521 10.5887 32.5593 10.5887C32.4469 10.5887 32.3202 10.5599 32.1724 10.5003C31.5925 10.2949 30.9858 10.1682 30.3676 10.1259V13.1183C31.0108 13.2786 31.5618 13.4543 32.0073 13.6395C32.5564 13.869 33.0258 14.2136 33.4031 14.6648C33.7996 15.1381 34.0012 15.7679 34.0012 16.5359C34.0012 17.1666 33.8284 17.7397 33.4885 18.2389C33.1545 18.7285 32.6793 19.1269 32.0764 19.4235C31.5801 19.6674 31.005 19.8258 30.3685 19.8959V20.756C30.3685 20.9672 30.2927 21.1487 30.1468 21.2811C30.0105 21.404 29.8348 21.4703 29.637 21.4703ZM30.3666 17.8031C31.6847 17.6082 31.8585 16.9765 31.8585 16.4427C31.8585 16.172 31.7404 15.981 31.4745 15.8216C31.2133 15.6642 30.8409 15.5106 30.3666 15.3637V17.8031ZM28.9218 10.196C28.509 10.2767 28.1644 10.4168 27.8965 10.6155C27.5778 10.8498 27.43 11.1339 27.43 11.5112C27.43 11.8568 27.5577 12.1007 27.8313 12.2783C28.0943 12.4482 28.461 12.6056 28.9218 12.7477V10.196Z" fill="#638B3F"/>
<path d="M13.9996 41.2395C21.2013 41.2395 27.0393 35.4015 27.0393 28.1998C27.0393 20.9982 21.2013 15.1602 13.9996 15.1602C6.79803 15.1602 0.959961 20.9982 0.959961 28.1998C0.959961 35.4015 6.79803 41.2395 13.9996 41.2395Z" fill="#E0AE55"/>
<path d="M13.9995 38.8125C19.8608 38.8125 24.6123 34.061 24.6123 28.1997C24.6123 22.3384 19.8608 17.5869 13.9995 17.5869C8.13823 17.5869 3.38672 22.3384 3.38672 28.1997C3.38672 34.061 8.13823 38.8125 13.9995 38.8125Z" fill="#FFCC66"/>
<path d="M19.0462 29.0016C18.8148 28.2864 18.1995 27.9562 17.5303 27.7258C17.4804 27.7085 17.4286 27.697 17.3777 27.6797C17.371 27.6778 17.3691 27.6624 17.3633 27.648C17.5486 27.4954 17.7483 27.3552 17.9182 27.1863C18.7073 26.4039 18.5825 24.5415 17.3614 23.737C17.0167 23.5104 16.1623 23.1408 15.1812 23.1408V20.9453H13.8276V23.065H12.7966V20.9453H11.443V23.1322H8.77514V24.5568C9.05354 24.5568 9.3377 24.554 9.62186 24.5578C10.2564 24.5664 10.4907 24.8064 10.4907 25.44C10.4916 27.2765 10.4916 29.114 10.4907 30.9504C10.4897 31.49 10.3409 31.6388 9.80522 31.6407C9.5489 31.6416 9.29354 31.6407 9.02282 31.6407C8.9345 32.1648 8.85194 32.6583 8.76074 33.1988H11.442V35.4519H12.7956V33.2813H13.8276V35.4519H15.1812V33.2487C15.6631 33.1863 16.1326 33.1517 16.5895 33.0615C17.3451 32.9127 18.0843 32.6832 18.5758 32.0439C19.2804 31.1271 19.3975 30.0816 19.0462 29.0016ZM12.8187 24.6778C13.5953 24.6327 14.3527 24.6039 15.0862 24.8708C15.6468 25.0752 15.9579 25.4938 15.9492 26.0208C15.9415 26.5383 15.6123 26.9501 15.0449 27.1402C14.3287 27.3792 13.5895 27.361 12.8177 27.3418L12.8187 24.6778ZM15.6843 31.3268C14.7655 31.6973 13.8007 31.658 12.8196 31.6378V28.6839C13.7806 28.6906 14.7175 28.5936 15.6171 28.9392C16.2209 29.1716 16.5396 29.5652 16.5502 30.1143C16.5627 30.697 16.3054 31.0772 15.6843 31.3268Z" fill="#E0AE55"/>
<path d="M34.0001 47.0398C41.2017 47.0398 47.0398 41.2017 47.0398 34.0001C47.0398 26.7985 41.2017 20.9604 34.0001 20.9604C26.7985 20.9604 20.9604 26.7985 20.9604 34.0001C20.9604 41.2017 26.7985 47.0398 34.0001 47.0398Z" fill="#1FADFC"/>
<path d="M34 44.6128C39.8613 44.6128 44.6128 39.8613 44.6128 34C44.6128 28.1387 39.8613 23.3872 34 23.3872C28.1387 23.3872 23.3872 28.1387 23.3872 34C23.3872 39.8613 28.1387 44.6128 34 44.6128Z" fill="#92D3FF"/>
<path d="M29.6328 32.6525L33.9999 30.767L38.3669 32.6525L33.9999 25.3018L29.6328 32.6525Z" fill="#1FADFC"/>
<path d="M30.4199 37.6206L33.9998 42.699L37.5777 37.6196L33.9988 39.7691L30.4199 37.6206Z" fill="#1FADFC"/>
<path d="M28.3916 34.7414L33.9999 38.1072L39.6082 34.7405L33.9999 32.3193L28.3916 34.7414Z" fill="#1FADFC"/>
</g>
<defs>
<clipPath id="clip0_41_7709">
<rect width="48" height="48" fill="white"/>
</clipPath>
</defs>
</svg>
