<svg width="48" height="48" viewBox="0 0 48 48" fill="none" xmlns="http://www.w3.org/2000/svg">
<g clip-path="url(#clip0_41_7652)">
<path d="M44.0977 40.0627H3.90234C1.74719 40.0627 0 38.3152 0 36.16V11.9648C0 9.80969 1.74719 8.0625 3.90234 8.0625H44.0977C46.2528 8.0625 48 9.80969 48 11.9648V36.16C48 38.3152 46.2528 40.0627 44.0977 40.0627Z" fill="#E5646E"/>
<path d="M31.707 8.0625H36.585V13.916H31.707V8.0625Z" fill="#BCE8F1"/>
<path d="M46.049 8.58594V36.1602C46.049 37.2379 45.1752 38.1113 44.0978 38.1113H0.523438C1.19836 39.2777 2.4585 40.0629 3.90247 40.0629H44.0978C46.2529 40.0629 48.0001 38.3153 48.0001 36.1602V11.965C48.0001 10.521 47.215 9.26086 46.049 8.58594Z" fill="#E04955"/>
<path d="M31.707 18.6318H36.585V40.0625H31.707V18.6318Z" fill="#BCE8F1"/>
<path d="M35.1221 8.0625H36.5854V13.916H35.1221V8.0625Z" fill="#93DCFC"/>
<path d="M35.1216 18.6318V37.1357C35.1216 37.6744 34.6851 38.1113 34.146 38.1113H31.707V40.0629H36.585V18.6318H35.1216Z" fill="#93DCFC"/>
<path d="M13.7559 21.3306H5.95117C4.87341 21.3306 4 20.4572 4 19.3794V14.0137C4 12.9359 4.87341 12.0625 5.95117 12.0625H13.7559C14.8336 12.0625 15.7074 12.9359 15.7074 14.0137V19.3794C15.7074 20.4572 14.8336 21.3306 13.7559 21.3306Z" fill="#FFCD50"/>
<path d="M13.7562 12.0625H12.3906C13.468 12.0625 14.3418 12.9359 14.3418 14.0137V19.3794C14.3418 20.4572 13.468 21.3306 12.3906 21.3306H13.7562C14.834 21.3306 15.7078 20.4572 15.7078 19.3794V14.0137C15.7078 12.9359 14.834 12.0625 13.7562 12.0625Z" fill="#FFBC27"/>
<path d="M34.1465 15.7698V17.5261L41.674 20.7879C42.2661 21.0443 42.9271 20.6103 42.9271 19.9651V13.3308C42.9271 12.6855 42.2661 12.2516 41.674 12.5079L34.1465 15.7698Z" fill="#BCE8F1"/>
<path d="M41.674 12.5079L41.5612 12.5566V18.4684C41.5612 18.8895 41.1298 19.173 40.743 19.0052L34.1465 16.147V17.5257L41.674 20.7876C42.2661 21.0443 42.9271 20.6103 42.9271 19.9651V13.3304C42.9271 12.6855 42.2661 12.2516 41.674 12.5079Z" fill="#93DCFC"/>
<path d="M34.146 15.7698V17.5261L26.6189 20.7879C26.0267 21.0443 25.3657 20.6103 25.3657 19.9651V13.3308C25.3657 12.6855 26.0267 12.2516 26.6189 12.5079L34.146 15.7698Z" fill="#BCE8F1"/>
<path d="M29.7599 13.8691C29.2333 14.684 28.9268 15.6544 28.9268 16.6967C28.9268 17.001 28.9528 17.2991 29.0029 17.5887C29.0787 18.0282 28.8367 18.4607 28.428 18.6379L25.3657 19.9651C25.3657 20.6104 26.0267 21.0443 26.6189 20.788L34.146 17.5261V15.7698L29.7599 13.8691Z" fill="#93DCFC"/>
<path d="M37.8536 16.6964C37.8536 18.7439 36.1936 20.4039 34.1461 20.4039C32.0986 20.4039 30.439 18.7439 30.439 16.6964C30.439 14.6489 32.0986 12.9893 34.1461 12.9893C36.1936 12.9893 37.8536 14.6489 37.8536 16.6964Z" fill="#BCE8F1"/>
<path d="M35.9783 13.4741C36.2866 14.0146 36.4631 14.6394 36.4631 15.3063C36.4631 17.3538 34.8035 19.0134 32.756 19.0134C32.0891 19.0134 31.4644 18.8365 30.9238 18.5286C31.5618 19.6484 32.7651 20.4036 34.1461 20.4036C36.1936 20.4036 37.8536 18.7439 37.8536 16.6964C37.8536 15.3154 37.0981 14.1121 35.9783 13.4741Z" fill="#93DCFC"/>
<path d="M15.7074 17.4771V18.9404H12.3903C12.2555 18.9404 12.1464 19.0499 12.1464 19.1847V21.3307H10.6826V19.1847C10.6826 18.2432 11.4487 17.4774 12.3899 17.4774H15.7074V17.4771Z" fill="#FFBC27"/>
<path d="M9.02441 19.1843V21.3307H7.56067V19.1843C7.56067 19.0499 7.45154 18.9404 7.31677 18.9404H4V17.4771H7.31714C8.2583 17.4771 9.02441 18.2432 9.02441 19.1843Z" fill="#FFBC27"/>
<path d="M9.02441 12.0625V14.2089C9.02441 15.15 8.2583 15.9161 7.31714 15.9161H4V14.4524H7.31714C7.45154 14.4524 7.56104 14.3433 7.56104 14.2085V12.0625H9.02441Z" fill="#FFBC27"/>
<path d="M15.7075 14.4528V15.9161H12.3904C11.4489 15.9161 10.6831 15.1504 10.6831 14.2089V12.0625H12.1465V14.2089C12.1465 14.3433 12.2556 14.4528 12.3904 14.4528H15.7075Z" fill="#FFBC27"/>
<path d="M8.29224 28.8921C8.69653 28.8921 9.02429 28.5643 9.02429 28.1604C9.02429 27.7561 8.69653 27.4287 8.29224 27.4287H4.87769C4.20532 27.4287 3.6582 27.9755 3.6582 28.6482V34.1113C3.6582 34.7841 4.20532 35.3308 4.87769 35.3308H7.80481C8.47717 35.3308 9.02429 34.7841 9.02429 34.1113V32.2579C9.02429 31.5852 8.47717 31.0385 7.80481 31.0385H6.73145C6.32751 31.0385 5.99976 31.3658 5.99976 31.7701C5.99976 32.1741 6.32715 32.5018 6.73145 32.5018H7.56091V33.8678H5.12158V28.8921H8.29224Z" fill="#FFCD50"/>
<path d="M17.2678 27.4287H13.3655C12.9612 27.4287 12.6338 27.7561 12.6338 28.1604V34.5995C12.6338 35.0034 12.9612 35.3312 13.3655 35.3312C13.7694 35.3312 14.0972 35.0034 14.0972 34.5995V32.2092H15.8044C16.2084 32.2092 16.5361 31.8815 16.5361 31.4775C16.5361 31.0732 16.2084 30.7455 15.8044 30.7455H14.0972V28.8921H17.2678C17.6718 28.8921 17.9995 28.5643 17.9995 28.1604C17.9995 27.7561 17.6721 27.4287 17.2678 27.4287Z" fill="#FFCD50"/>
<path d="M10.8289 27.4287C10.4249 27.4287 10.0972 27.7561 10.0972 28.1604V34.5995C10.0972 35.0034 10.4246 35.3312 10.8289 35.3312C11.2328 35.3312 11.5605 35.0034 11.5605 34.5995V28.1604C11.5605 27.7561 11.2332 27.4287 10.8289 27.4287Z" fill="#FFCD50"/>
<path d="M23.4147 27.4287H19.512C19.108 27.4287 18.7803 27.7561 18.7803 28.1604C18.7803 28.5643 19.108 28.8921 19.512 28.8921H20.7314V34.5995C20.7314 35.0034 21.0592 35.3312 21.4631 35.3312C21.8674 35.3312 22.1948 35.0034 22.1948 34.5995V28.8921H23.4147C23.8186 28.8921 24.1464 28.5643 24.1464 28.1604C24.1464 27.7561 23.8186 27.4287 23.4147 27.4287Z" fill="#FFCD50"/>
</g>
<defs>
<clipPath id="clip0_41_7652">
<rect width="48" height="48" fill="white"/>
</clipPath>
</defs>
</svg>
